<?xml version="1.0" encoding="UTF-8"?> <!-- Generator: Adobe Illustrator 21.0.0, SVG Export Plug-In . SVG Version: 6.00 Build 0) --> <svg xmlns="http://www.w3.org/2000/svg" xmlns:xlink="http://www.w3.org/1999/xlink" id="Layer_1" x="0px" y="0px" viewBox="0 0 72 72" style="enable-background:new 0 0 72 72;" xml:space="preserve"> <style type="text/css"> .st0{fill:#FFFFFF;stroke:#164455;stroke-width:1.5;stroke-miterlimit:10;} .st1{fill:#164455;} .st2{fill:#F36F2B;} </style> <title>-</title> <circle class="st0" cx="36" cy="36" r="34.6"></circle> <path class="st1" d="M52.8,50.3c0.5-0.6,0.7-1.3,0.7-2V47c0-1.8-1.4-3.2-3.2-3.2c-1.8,0-3.2,1.4-3.2,3.2v1.3c0,0.7,0.3,1.4,0.7,2 c-0.8,0.1-1.5,0.6-2,1.2c-0.5-0.7-1.2-1.1-2-1.2c0.5-0.6,0.7-1.3,0.7-2V47c-0.2-1.8-1.7-3.1-3.5-2.9c-1.5,0.1-2.7,1.4-2.9,2.9v1.3 c0,0.7,0.2,1.4,0.7,2c-0.8,0.1-1.5,0.6-2,1.2c-0.5-0.7-1.2-1.1-2-1.2c0.5-0.6,0.7-1.3,0.7-2V47c-0.2-1.8-1.8-3-3.6-2.8 c-1.5,0.2-2.6,1.3-2.8,2.8v1.3c0,0.7,0.3,1.4,0.7,2c-1.5,0.3-2.7,1.6-2.7,3.1v1.9h1.3v-1.9c0-1.1,0.9-1.9,1.9-1.9c0,0,0,0,0,0h3.9 c1.1,0,1.9,0.9,1.9,1.9l0,0v1.9h1.3v-1.9c0-1.1,0.9-1.9,1.9-1.9c0,0,0,0,0,0h3.9c1.1,0,1.9,0.9,1.9,1.9c0,0,0,0,0,0v1.9h1.3v-1.9 c0-1.1,0.9-1.9,1.9-1.9c0,0,0,0,0,0h3.9c1.1,0,1.9,0.9,1.9,1.9c0,0,0,0,0,0v1.9h1.3v-1.9C55.4,51.9,54.3,50.5,52.8,50.3z M34.1,48.3 c0.1,1.1-0.7,2-1.8,2.1c-1.1,0.1-2-0.7-2.1-1.8c0-0.1,0-0.2,0-0.3V47c0.1-1.1,1-1.9,2.1-1.8c1,0.1,1.7,0.8,1.8,1.8V48.3z M43.1,48.3 c0,1.1-0.9,1.9-1.9,1.9s-1.9-0.9-1.9-1.9V47c0-1.1,0.9-1.9,1.9-1.9s1.9,0.9,1.9,1.9V48.3z M52.1,48.3c0.1,1.1-0.7,2-1.8,2.1 c-1.1,0.1-2-0.7-2.1-1.8c0-0.1,0-0.2,0-0.3V47c0.1-1.1,1-1.9,2.1-1.8c1,0.1,1.7,0.8,1.8,1.8V48.3z"></path> <path class="st1" d="M32.4,29.6c-0.1,0-0.2,0-0.2,0h-2.6c-0.3,0-0.5,0.2-0.6,0.4l-0.7,1.9v-0.1c-0.5-1.3-1.8-2.2-3.2-2.2l0,0 c0.4-0.6,0.7-1.2,0.7-1.9v-1.3c0.1-1.8-1.3-3.3-3-3.4s-3.3,1.3-3.4,3c0,0.1,0,0.2,0,0.4v1.3c0,0.7,0.2,1.4,0.7,1.9l0,0 c-1.8,0-3.3,1.4-3.3,3.2c0,0,0,0,0,0.1v7.7c0,0.4,0.3,0.7,0.6,0.7c0,0,0,0,0,0h1.9v6.3l-1.2,1.8c-0.2,0.3-0.1,0.7,0.2,0.9 c0,0,0,0,0,0c0.1,0.1,0.2,0.1,0.4,0.1h7.7c0.4,0,0.6-0.3,0.6-0.7c0-0.1,0-0.2-0.1-0.3l-1.2-1.8V35.5l0.2,0.3 c0.7,1.3,2.2,1.8,3.5,1.2c0.6-0.3,1-0.8,1.3-1.4l1.1-2.6l1-2.6C32.9,30.1,32.7,29.7,32.4,29.6L32.4,29.6z M20.6,26.4 c-0.1-1.1,0.7-2,1.8-2.1s2,0.7,2.1,1.8c0,0.1,0,0.2,0,0.3v1.3c-0.1,1.1-1,1.9-2.1,1.8c-1-0.1-1.7-0.8-1.8-1.8V26.4z M19.3,39.9H18 v-1.3h1.3L19.3,39.9z M23.2,48.9v-7.7h-1.3v7.7h-2l0.6-0.9c0.1-0.1,0.1-0.2,0.1-0.4v-7.7h3.9v7.7c0,0.1,0,0.3,0.1,0.4l0.6,0.9 L23.2,48.9z M29.5,35.2c-0.3,0.7-1,1-1.7,0.8c0,0,0,0,0,0c-0.3-0.1-0.6-0.4-0.7-0.6l-1.4-2.8c-0.2-0.3-0.5-0.5-0.9-0.3c0,0,0,0,0,0 c-0.2,0.1-0.4,0.3-0.4,0.6v5.8h-3.9v-5.8c0-0.4-0.2-0.7-0.6-0.7s-0.7,0.2-0.7,0.6c0,0.1,0,0.1,0,0.2v4.5H18v-4.5 c0-1.1,0.9-1.9,1.9-1.9c0,0,0,0,0,0h1.9v6.4h1.3v-6.4h1.9c0.9,0,1.7,0.6,2,1.4l0.6,1.8c0.1,0.3,0.5,0.5,0.8,0.4c0,0,0,0,0,0 c0.2-0.1,0.3-0.2,0.4-0.4l0.2-0.5h1.1L29.5,35.2z M30.7,32.2h-1.1l0.5-1.3h1.2L30.7,32.2z"></path> <path class="st1" d="M54.8,20.5c0.4,0,0.6-0.3,0.7-0.6v-2.6c0-0.4-0.3-0.6-0.7-0.6l0,0H27.7c-0.4,0-0.6,0.3-0.6,0.6v2.6 c0,0.4,0.3,0.6,0.6,0.6h0.6v7.7h1.3v-7.7h23.2v14.2H32.2V36h8.4v2.8l-4.2,2.4l0.6,1.1l3.6-2v2.1h1.3v-2.1l3.5,2l0.6-1.1l-4.2-2.4V36 h13.6v-1.3h-1.3V20.5H54.8z M28.3,19.2V18h25.8v1.3L28.3,19.2z"></path> <path class="st2" d="M48.5,23.8l-2.6-0.6l-0.3,1.2l1.2,0.3l-4.9,3.4L39,25.8c-0.2-0.2-0.5-0.2-0.8,0l-4.5,3.2l0.8,1l4.1-3l2.8,2.3 c0.2,0.2,0.5,0.2,0.8,0l5.4-3.8V27H49v-2.6C49,24.1,48.8,23.9,48.5,23.8L48.5,23.8z"></path> </svg> 