<?xml version="1.0" encoding="UTF-8"?> <!-- Generator: Adobe Illustrator 21.0.0, SVG Export Plug-In . SVG Version: 6.00 Build 0) --> <svg xmlns="http://www.w3.org/2000/svg" xmlns:xlink="http://www.w3.org/1999/xlink" id="Layer_1" x="0px" y="0px" viewBox="0 0 72 72" style="enable-background:new 0 0 72 72;" xml:space="preserve"> <style type="text/css"> .st0{fill:#FFFFFF;stroke:#164455;stroke-width:1.5;stroke-miterlimit:10;} .st1{fill:#164455;} .st2{fill:#F36F2B;} </style> <title>-</title> <circle class="st0" cx="36" cy="35.9" r="34.6"></circle> <path class="st1" d="M55.5,13.7H37.1c-1.6,0-2.9,1.3-2.9,2.9V35h1.5V16.6c0-0.8,0.7-1.5,1.5-1.5l0,0h18.4c0.8,0,1.5,0.6,1.5,1.4 c0,0,0,0,0,0v25.7c0,0.8-0.7,1.5-1.5,1.5c0,0,0,0,0,0h-11v1.5h11c1.6,0,2.9-1.3,2.9-2.9V16.6C58.5,15,57.1,13.7,55.5,13.7L55.5,13.7 z"></path> <path class="st1" d="M46.7,37.9h-0.7c-1.2,0.1-2.1,1.1-2.1,2.4c0.1,1.1,1,2,2.1,2.1h0.7c1.2-0.1,2.1-1.1,2.1-2.4 C48.7,38.9,47.8,38,46.7,37.9z M46.7,40.8h-0.7c-0.4,0-0.7-0.4-0.6-0.8c0-0.3,0.3-0.6,0.6-0.6h0.7c0.4,0,0.7,0.4,0.6,0.8 C47.3,40.5,47,40.8,46.7,40.8z"></path> <path class="st1" d="M40.1,32h-0.7c-1.2,0-2.2,1-2.2,2.2s1,2.2,2.2,2.2h0.7c1.2,0,2.2-1,2.2-2.2S41.3,32,40.1,32L40.1,32z M40.1,34.9h-0.7c-0.4,0-0.7-0.4-0.6-0.8c0-0.3,0.3-0.6,0.6-0.6h0.7c0.4,0,0.7,0.4,0.6,0.8C40.7,34.6,40.4,34.9,40.1,34.9z"></path> <path class="st1" d="M46.7,32h-0.7c-1.2,0-2.2,1-2.2,2.2s1,2.2,2.2,2.2h0.7c1.2,0,2.2-1,2.2-2.2S47.9,32,46.7,32z M46.7,34.9h-0.7 c-0.4,0-0.7-0.4-0.6-0.8c0-0.3,0.3-0.6,0.6-0.6h0.7c0.4,0,0.7,0.4,0.6,0.8C47.3,34.6,47,34.9,46.7,34.9z"></path> <path class="st1" d="M40.1,26.2h-0.7c-1.2,0.1-2.1,1.1-2.1,2.4c0.1,1.1,1,2,2.1,2.1h0.7c1.2-0.1,2.1-1.1,2.1-2.4 C42.1,27.1,41.2,26.2,40.1,26.2z M40.1,29.1h-0.7c-0.4,0-0.7-0.4-0.6-0.8c0-0.3,0.3-0.6,0.6-0.6h0.7c0.4,0,0.7,0.4,0.6,0.8 C40.7,28.8,40.4,29.1,40.1,29.1z"></path> <path class="st1" d="M46.7,26.2h-0.7c-1.2,0.1-2.1,1.1-2.1,2.4c0.1,1.1,1,2,2.1,2.1h0.7c1.2-0.1,2.1-1.1,2.1-2.4 C48.7,27.1,47.8,26.2,46.7,26.2z M46.7,29.1h-0.7c-0.4,0-0.7-0.4-0.6-0.8c0-0.3,0.3-0.6,0.6-0.6h0.7c0.4,0,0.7,0.4,0.6,0.8 C47.3,28.8,47,29.1,46.7,29.1z"></path> <path class="st1" d="M53.3,26.2h-0.7c-1.2,0.1-2.1,1.1-2.1,2.4c0.1,1.1,1,2,2.1,2.1h0.7c1.2,0.1,2.3-0.8,2.4-2.1 c0.1-1.2-0.8-2.3-2.1-2.4C53.5,26.2,53.4,26.2,53.3,26.2z M53.3,29.1h-0.7c-0.4,0-0.7-0.4-0.6-0.8c0-0.3,0.3-0.6,0.6-0.6h0.7 c0.4,0,0.8,0.2,0.8,0.6s-0.2,0.8-0.6,0.8C53.4,29.1,53.3,29.1,53.3,29.1z"></path> <path class="st1" d="M54.8,16.6H37.9c-0.4,0-0.7,0.3-0.7,0.7V24c0,0.4,0.3,0.7,0.7,0.7l0,0h16.9c0.4,0,0.7-0.3,0.7-0.7c0,0,0,0,0,0 v-6.6C55.5,16.9,55.2,16.6,54.8,16.6z M54,23.2H38.6v-5.1H54V23.2z"></path> <path class="st1" d="M53.3,32h-0.7c-1.2,0-2.2,1-2.2,2.2c0,0,0,0,0,0v5.9c0,1.2,1,2.2,2.2,2.2l0,0h0.7c1.2,0,2.2-1,2.2-2.2v-5.8 C55.5,33,54.5,32,53.3,32C53.3,32,53.3,32,53.3,32z M54,40.1c0,0.4-0.3,0.7-0.7,0.7h-0.7c-0.4,0-0.7-0.3-0.7-0.7v-5.9 c0-0.4,0.3-0.7,0.7-0.7h0.7c0.4,0,0.7,0.3,0.7,0.7V40.1z"></path> <rect x="51.1" y="20.3" class="st1" width="1.5" height="1.5"></rect> <rect x="48.1" y="20.3" class="st1" width="1.5" height="1.5"></rect> <rect x="45.2" y="20.3" class="st1" width="1.5" height="1.5"></rect> <path class="st1" d="M43,45.6L43,45.6c-0.2-5.1-4.4-9.2-9.5-9.2h-7.4c-0.3,0-0.6,0-0.9,0c-1-1.4-2.5-2.2-4.2-2.2 c-0.4,0-0.7,0.3-0.7,0.7l0,0v3.5c-1.5,1.2-2.7,2.8-3.3,4.6h-1.9c-0.4,0-0.7,0.3-0.7,0.7v5.9c0,0.4,0.3,0.7,0.7,0.7h2.6 c0.8,1.5,1.9,2.7,3.3,3.6v3c0,0.4,0.3,0.7,0.7,0.7h4.4c0.4,0,0.7-0.3,0.7-0.7v-1.5h5.9V57c0,0.4,0.3,0.7,0.7,0.7c0,0,0,0,0,0h4.4 c0.4,0,0.7-0.3,0.7-0.7v-3c2.7-1.8,4.4-4.8,4.4-8c0-0.1,0-0.2,0-0.2C43,45.8,43,45.7,43,45.6L43,45.6z M37.9,44.5v1.1 c0,1.4,1.2,2.6,2.6,2.6c0.3,0,0.6,0,0.8-0.1c-0.6,2.1-1.9,3.9-3.8,5c-0.2,0.1-0.4,0.4-0.4,0.6v2.7h-2.9v-1.5c0-0.4-0.3-0.7-0.7-0.7 h-7.3c-0.4,0-0.7,0.3-0.7,0.7v1.5h-2.9v-2.7c0-0.3-0.1-0.5-0.4-0.6c-1.4-0.8-2.6-2.1-3.3-3.6c-0.1-0.3-0.4-0.4-0.7-0.4h-2.3v-4.4 h1.8c0.3,0,0.6-0.2,0.7-0.5c0.5-1.8,1.6-3.4,3.1-4.5c0.2-0.1,0.3-0.4,0.3-0.6v-3.1c1.1,0.2,2,0.9,2.5,1.8c0.2,0.3,0.5,0.4,0.8,0.4 c0.4-0.1,0.8-0.1,1.2-0.1h7.3c4.4,0,7.9,3.5,8.1,7.8c-0.1,0.6-0.6,1-1.2,0.9c0,0,0,0,0,0c-0.5-0.1-0.9-0.5-0.9-1v-1.1L37.9,44.5z"></path> <path class="st1" d="M23.2,41.6c-1.2,0-2.2,1-2.2,2.2s1,2.2,2.2,2.2c1.2,0,2.2-1,2.2-2.2c0,0,0,0,0,0C25.4,42.6,24.4,41.6,23.2,41.6 C23.2,41.6,23.2,41.6,23.2,41.6z M23.2,44.5c-0.4,0-0.7-0.3-0.7-0.7c0-0.4,0.3-0.7,0.7-0.7c0.4,0,0.7,0.3,0.7,0.7c0,0,0,0,0,0 C23.9,44.2,23.6,44.5,23.2,44.5z"></path> <rect x="26.9" y="40.1" class="st1" width="5.9" height="1.5"></rect> <path class="st2" d="M29,24c-2,0-3.7,1.7-3.7,3.7c0,2,1.7,3.7,3.7,3.7c2,0,3.7-1.6,3.7-3.7C32.7,25.6,31.1,24,29,24z M29,29.9 c-1.2,0-2.2-1-2.2-2.2s1-2.2,2.2-2.2s2.2,1,2.2,2.2v0C31.3,28.9,30.3,29.9,29,29.9z"></path> <path class="st2" d="M20.2,19.6c-2,0-3.7,1.6-3.7,3.7s1.6,3.7,3.7,3.7s3.7-1.6,3.7-3.7l0,0C23.9,21.2,22.3,19.6,20.2,19.6z M20.2,25.4c-1.2,0-2.2-1-2.2-2.2c0-1.2,1-2.2,2.2-2.2c1.2,0,2.2,1,2.2,2.2c0,0,0,0,0,0C22.4,24.4,21.5,25.4,20.2,25.4z"></path> <path class="st2" d="M29.8,17.2c-0.1-0.3-0.3-0.5-0.6-0.6c-1.2-0.2-2.1-1.1-2.3-2.3c-0.1-0.4-0.4-0.7-0.9-0.6 c-0.3,0.1-0.5,0.3-0.6,0.6c-0.2,1.2-1.1,2.1-2.3,2.3c-0.4,0.1-0.7,0.5-0.6,0.9c0.1,0.3,0.3,0.5,0.6,0.6c1.2,0.2,2.1,1.1,2.3,2.3 c0.1,0.4,0.5,0.7,0.9,0.6c0.3,0,0.6-0.3,0.6-0.6c0.2-1.2,1.1-2.1,2.3-2.3C29.6,18,29.8,17.6,29.8,17.2z M26.1,18.4 c-0.3-0.4-0.6-0.7-1-1c0.4-0.3,0.8-0.6,1-1c0.3,0.4,0.6,0.8,1,1C26.8,17.7,26.4,18,26.1,18.4z"></path> </svg> 