<?xml version="1.0" encoding="UTF-8"?> <!-- Generator: Adobe Illustrator 21.0.0, SVG Export Plug-In . SVG Version: 6.00 Build 0) --> <svg xmlns="http://www.w3.org/2000/svg" xmlns:xlink="http://www.w3.org/1999/xlink" id="Layer_1" x="0px" y="0px" viewBox="0 0 72 72" style="enable-background:new 0 0 72 72;" xml:space="preserve"> <style type="text/css"> .st0{fill:#FFFFFF;stroke:#164455;stroke-width:1.5;stroke-miterlimit:10;} .st1{fill:#164455;} .st2{fill:#F36F2B;} </style> <circle class="st0" cx="36.3" cy="35.9" r="34.6"></circle> <title>-</title> <path class="st1" d="M36,24.6c-2.8,0-5.1,2.3-5.1,5.1s2.3,5.1,5.1,5.1c2.8,0,5.1-2.3,5.1-5.1l0,0C41.1,26.9,38.8,24.6,36,24.6z M36,33.2c-1.9,0-3.4-1.5-3.4-3.4s1.5-3.4,3.4-3.4s3.4,1.5,3.4,3.4C39.4,31.6,37.9,33.2,36,33.2z"></path> <path class="st1" d="M45.2,37.2c-0.3-0.3-0.6-0.5-0.9-0.8l0,0c2.8-8.7-0.3-18.3-7.8-23.6c-0.3-0.2-0.7-0.2-1,0 c-7.5,5.3-10.6,14.9-7.8,23.6l0,0C23,40.1,22.2,47,26,51.7c0,0,0,0,0,0c0.3,0.3,0.5,0.6,0.8,0.9c0.2,0.2,0.4,0.3,0.6,0.2 c0.1,0,0.2,0,0.3,0c0.3-0.1,0.5-0.4,0.6-0.7l0.6-4.5c0.1-0.4,0.4-0.7,0.8-0.7h2.6l-0.6,3.2c-0.1,0.5,0.2,0.9,0.7,1h0.2h6.9 c0.5,0,0.9-0.4,0.9-0.8c0,0,0,0,0,0c0-0.1,0-0.1,0-0.2l-0.7-3.2h2.6c0.4,0,0.8,0.3,0.8,0.7l0.7,4.5c0,0.3,0.3,0.6,0.6,0.7 c0.1,0,0.2,0,0.3,0c0.2,0,0.4-0.1,0.6-0.2C49.4,48.3,49.4,41.4,45.2,37.2C45.2,37.1,45.2,37.1,45.2,37.2L45.2,37.2z M36,14.5 c2.1,1.6,3.8,3.5,5.1,5.8H30.9C32.2,18.1,33.9,16.1,36,14.5z M29.8,45.2c-1.3,0-2.3,1-2.5,2.2L26.9,50c-1.1-1.7-1.7-3.8-1.5-5.9l0,0 c0.2-2.3,1.2-4.4,2.9-6l2.3,7.1L29.8,45.2z M33.6,49.5l0.5-2.6h3.7l0.5,2.6H33.6z M32.3,45.2l-2.8-8.8l-0.2-0.6 c-1.5-4.5-1.2-9.5,0.7-13.8h11.9c1.9,4.3,2.2,9.2,0.7,13.8l-0.2,0.6l-2.8,8.8L32.3,45.2z M45.1,50l-0.4-2.6 c-0.2-1.3-1.3-2.2-2.5-2.2h-0.8l2.3-7.1C47,41.2,47.6,46.2,45.1,50z"></path> <path class="st2" d="M32.6,52.8v2.8c-2.1-0.6-4.3-0.1-5.9,1.4c-1.3-1.6-3.2-2.5-5.2-2.5c-0.6,0-1.2,0.1-1.8,0.2 c-0.7-4.1-4.3-7.1-8.4-7.1H3.7l1.3,1.7h6.1c3.5,0,6.5,2.6,6.9,6.1c-0.8,0.5-1.6,1.1-2.1,1.9c-1.6-1.3-5.6-2.1-7.9-1.6l1.6,1.5 c3.8,0,7.6,2.9,7.6,6.7l1.9,1.5c0-2.4-0.7-4.7-1.9-6.7c0.5-0.9,1.2-1.6,2.1-2l0,0c0.7-0.3,1.4-0.5,2.2-0.5c1.7,0,3.2,0.8,4.2,2.2 c-0.5,0.9-0.7,2-0.8,3h1.7c0-0.9,0.3-1.7,0.8-2.4l0,0l0,0c1.2-1.7,3.4-2.3,5.2-1.5v2.2h1.7v-6.9H32.6z"></path> <path class="st2" d="M60.8,49.5h6.7l1.2-1.7h-8c-4.2,0-7.7,3-8.4,7.1c-0.6-0.2-1.2-0.3-1.8-0.2c-2,0-3.9,0.9-5.2,2.5 c-1.5-1.5-3.8-2.1-5.9-1.4v-2.8h-1.7v6.9h1.7v-2.2c1.9-0.8,4.1-0.2,5.2,1.5l0,0l0,0c0.5,0.7,0.7,1.6,0.7,2.5h1.7c0-1-0.3-2.1-0.8-3 c1-1.4,2.5-2.2,4.2-2.2c0.8,0,1.5,0.2,2.2,0.5l0,0c0.9,0.4,1.6,1.1,2.1,2c-1.2,1.5-1.8,4.8-1.8,6.7l1.9-0.4c0-3.8,2.4-7.7,8-7.8 l1.6-2.3c-2,0-6.9,1.2-8.4,2.5c-0.6-0.8-1.3-1.4-2.1-1.9C54.4,52.1,57.3,49.4,60.8,49.5z"></path> <rect x="31.7" y="37.5" class="st1" width="1.7" height="1.7"></rect> <rect x="35.1" y="37.5" class="st1" width="1.7" height="1.7"></rect> <rect x="38.6" y="37.5" class="st1" width="1.7" height="1.7"></rect> <rect x="19.7" y="58" class="st2" width="1.7" height="1.7"></rect> <rect x="10.3" y="44.3" class="st2" width="1.7" height="1.7"></rect> <rect x="58.3" y="52" class="st2" width="1.7" height="1.7"></rect> <rect x="51.4" y="48.6" class="st2" width="1.7" height="1.7"></rect> <rect x="42" y="62.3" class="st2" width="1.7" height="1.7"></rect> <rect x="60" y="42.6" class="st2" width="1.7" height="1.7"></rect> </svg> 