<?xml version="1.0" encoding="UTF-8"?> <!-- Generator: Adobe Illustrator 21.0.0, SVG Export Plug-In . SVG Version: 6.00 Build 0) --> <svg xmlns="http://www.w3.org/2000/svg" xmlns:xlink="http://www.w3.org/1999/xlink" id="Layer_1" x="0px" y="0px" viewBox="0 0 72 72" style="enable-background:new 0 0 72 72;" xml:space="preserve"> <style type="text/css"> .st0{fill:#FFFFFF;stroke:#164455;stroke-width:1.5;stroke-miterlimit:10;} .st1{clip-path:url(#SVGID_2_);} .st2{fill:#164455;} .st3{fill:#F36F2B;} </style> <title>-</title> <circle class="st0" cx="36" cy="36" r="34.6"></circle> <g> <defs> <rect id="SVGID_1_" x="18.2" y="18.5" width="35.5" height="35.5"></rect> </defs> <clipPath id="SVGID_2_"> <use xlink:href="#SVGID_1_" style="overflow:visible;"></use> </clipPath> <g class="st1"> <path class="st2" d="M20,43.9h5.3v-1.2h-3.9l5.1-12.9c0.2-0.5,0.6-0.7,1.1-0.7h20.7c0.3,0,0.6,0.3,0.6,0.6c0,0.1,0,0.2,0,0.2 l-1.5,3.7l1.1,0.4l1.5-3.7c0.2-0.5,0.2-1.2-0.2-1.7c-0.3-0.5-0.9-0.8-1.5-0.8h-3v-3.5c0-0.3-0.3-0.6-0.6-0.6c0,0,0,0,0,0h-1.7 v-1.2c0-1-0.8-1.8-1.8-1.8H30c-0.2,0-0.3-0.1-0.4-0.2L27.9,19c-0.3-0.3-0.8-0.5-1.2-0.5H20c-1,0-1.8,0.8-1.8,1.8v21.9 C18.2,43.1,19,43.9,20,43.9z M44.3,27.9h-1.8v-1.2h-1.2v1.2h-1.8v-1.2h-1.2v1.2h-1.8v-1.2h-1.2v1.2h-1.8v-1.2h-1.2v1.2h-1.8v-1.2 h-1.2v1.2h-1.8v-1.2h-1.2v1.5c-0.5,0.3-0.8,0.7-1,1.2l-0.8,2v-4.6h-1.2v7.6l-1.8,4.4V25h22.5L44.3,27.9z M19.4,20.2 c0-0.3,0.3-0.6,0.6-0.6l0,0h6.6c0.2,0,0.3,0.1,0.4,0.2l1.7,1.7c0.3,0.3,0.8,0.5,1.3,0.5h11.3c0.3,0,0.6,0.3,0.6,0.6l0,0v1.2H21.2 c-0.3,0-0.6,0.3-0.6,0.6l0,0V41c0,0.1,0.1,0.3,0.1,0.4l-0.5,1.2c0,0.1-0.1,0.2-0.3,0.2c-0.3,0-0.6-0.3-0.6-0.6l0,0L19.4,20.2z"></path> </g> </g> <rect x="20.6" y="20.8" class="st3" width="1.2" height="1.2"></rect> <rect x="23" y="20.8" class="st3" width="1.2" height="1.2"></rect> <rect x="25.3" y="20.8" class="st3" width="1.2" height="1.2"></rect> <path class="st2" d="M52,35H28.3c-1,0-1.8,0.8-1.8,1.8v9.5c0,1,0.8,1.8,1.8,1.8h13.6v-1.2H28.3c-0.3,0-0.6-0.2-0.6-0.6c0,0,0,0,0,0 v-9.5c0-0.3,0.3-0.6,0.6-0.6c0,0,0,0,0,0H52c0.3,0,0.6,0.3,0.6,0.6c0,0,0,0,0,0v5.9h1.2v-5.9C53.8,35.8,53,35,52,35L52,35z"></path> <path class="st2" d="M32.5,38c0-0.3-0.3-0.6-0.6-0.6c0,0,0,0,0,0h-2.4c-0.3,0-0.6,0.3-0.6,0.6c0,0,0,0,0,0v2.4 c0,0.3,0.3,0.6,0.6,0.6c0,0,0,0,0,0h2.4c0.3,0,0.6-0.3,0.6-0.6c0,0,0,0,0,0V38z M31.3,39.8h-1.2v-1.2h1.2V39.8z"></path> <path class="st2" d="M34.2,41h2.4c0.3,0,0.6-0.2,0.6-0.6c0,0,0,0,0,0V38c0-0.3-0.2-0.6-0.6-0.6c0,0,0,0,0,0h-2.4 c-0.3,0-0.6,0.3-0.6,0.6l0,0v2.4C33.6,40.7,33.9,41,34.2,41L34.2,41L34.2,41z M34.8,38.6H36v1.2h-1.2V38.6z"></path> <path class="st2" d="M41.3,41c0.3,0,0.6-0.2,0.6-0.6c0,0,0,0,0,0V38c0-0.3-0.2-0.6-0.6-0.6c0,0,0,0,0,0H39c-0.3,0-0.6,0.2-0.6,0.6 c0,0,0,0,0,0v2.4c0,0.3,0.2,0.6,0.5,0.6c0,0,0,0,0.1,0H41.3z M39.5,38.6h1.2v1.2h-1.2V38.6z"></path> <path class="st2" d="M46.1,41c0.3,0,0.6-0.3,0.6-0.6l0,0V38c0-0.3-0.3-0.6-0.6-0.6l0,0h-2.4c-0.3,0-0.6,0.2-0.6,0.6c0,0,0,0,0,0v2.4 c0,0.3,0.2,0.6,0.6,0.6c0,0,0,0,0,0L46.1,41z M44.3,38.6h1.2v1.2h-1.2V38.6z"></path> <path class="st2" d="M50.8,41c0.3,0,0.6-0.3,0.6-0.6l0,0V38c0-0.3-0.3-0.6-0.6-0.6l0,0h-2.4c-0.3,0-0.6,0.3-0.6,0.6c0,0,0,0,0,0v2.4 c0,0.3,0.3,0.6,0.6,0.6c0,0,0,0,0,0L50.8,41z M49,38.6h1.2v1.2H49V38.6z"></path> <path class="st2" d="M31.9,42.2h-2.4c-0.3,0-0.6,0.3-0.6,0.6c0,0,0,0,0,0v2.4c0,0.3,0.3,0.6,0.6,0.6h2.4c0.3,0,0.6-0.3,0.6-0.6v-2.4 C32.5,42.4,32.2,42.2,31.9,42.2C31.9,42.2,31.9,42.2,31.9,42.2z M31.3,44.5h-1.2v-1.2h1.2V44.5z"></path> <path class="st2" d="M33.6,45.1c0,0.3,0.3,0.6,0.6,0.6h7.7v-1.2h-7.1v-1.2h8.9v-1.2h-9.5c-0.3,0-0.6,0.3-0.6,0.6l0,0V45.1z"></path> <path class="st3" d="M52,43.9c-0.4,0-0.9,0.2-1.2,0.5c-0.7-0.6-1.7-0.6-2.4,0c-0.7-0.6-1.7-0.6-2.4,0c-0.7-0.7-1.8-0.7-2.5,0 c-0.3,0.3-0.5,0.8-0.5,1.3v3.5c-0.7-0.7-1.8-0.7-2.5,0c-0.3,0.3-0.5,0.8-0.5,1.3v0.2c0,0.4,0.1,0.7,0.3,1l1.6,2.1 c0.1,0.1,0.3,0.2,0.5,0.2h10.7c0.3,0,0.6-0.3,0.6-0.6v-7.7C53.8,44.7,53,43.9,52,43.9z M52.6,52.8h-9.8L41.4,51 c-0.1-0.1-0.1-0.2-0.1-0.3v-0.2c0-0.2,0.2-0.5,0.4-0.5c0.2-0.1,0.5,0,0.6,0.2l0.8,1.3c0.2,0.3,0.5,0.3,0.8,0.2 c0.2-0.1,0.3-0.3,0.3-0.5v-5.3c0-0.3,0.3-0.6,0.7-0.5c0.3,0,0.5,0.2,0.5,0.5v2.4c0,0.3,0.3,0.6,0.6,0.6l0,0c0.3,0,0.6-0.3,0.6-0.6 v-2.4c0-0.3,0.3-0.6,0.6-0.6l0,0c0.3,0,0.6,0.2,0.6,0.6c0,0,0,0,0,0v2.4c0,0.3,0.3,0.6,0.7,0.5c0.3,0,0.5-0.2,0.5-0.5v-2.4 c0-0.3,0.3-0.6,0.6-0.6s0.6,0.3,0.6,0.6v2.4c0,0.3,0.3,0.6,0.7,0.5c0.3,0,0.5-0.2,0.5-0.5v-2.4c0-0.3,0.3-0.6,0.6-0.6 s0.6,0.3,0.6,0.6L52.6,52.8z"></path> <rect x="37.8" y="49.8" class="st3" width="1.2" height="1.2"></rect> <rect x="35.4" y="49.8" class="st3" width="1.2" height="1.2"></rect> <rect x="33" y="49.8" class="st3" width="1.2" height="1.2"></rect> <rect x="30.7" y="49.8" class="st3" width="1.2" height="1.2"></rect> <rect x="28.3" y="49.8" class="st3" width="1.2" height="1.2"></rect> <rect x="25.9" y="49.8" class="st3" width="1.2" height="1.2"></rect> <rect x="23.6" y="49.8" class="st3" width="1.2" height="1.2"></rect> <rect x="21.2" y="49.8" class="st3" width="1.2" height="1.2"></rect> <rect x="21.2" y="47.5" class="st3" width="1.2" height="1.2"></rect> <rect x="21.2" y="45.1" class="st3" width="1.2" height="1.2"></rect> </svg> 