<?xml version="1.0" encoding="UTF-8"?> <!-- Generator: Adobe Illustrator 21.0.0, SVG Export Plug-In . SVG Version: 6.00 Build 0) --> <svg xmlns="http://www.w3.org/2000/svg" xmlns:xlink="http://www.w3.org/1999/xlink" id="Layer_1" x="0px" y="0px" viewBox="0 0 72 72" style="enable-background:new 0 0 72 72;" xml:space="preserve"> <style type="text/css"> .st0{fill:#FFFFFF;stroke:#164455;stroke-width:1.5;stroke-miterlimit:10;} .st1{fill:#F36F2B;} .st2{clip-path:url(#SVGID_2_);} .st3{fill:#174455;} .st4{fill:#164455;} .st5{clip-path:url(#SVGID_4_);} </style> <title>-</title> <circle class="st0" cx="36" cy="36" r="34.6"></circle> <rect x="56.2" y="49.8" class="st1" width="1.5" height="5.4"></rect> <rect x="56.2" y="56.8" class="st1" width="1.5" height="2.3"></rect> <g> <defs> <rect id="SVGID_1_" x="12.8" y="12.6" width="46.5" height="46.5"></rect> </defs> <clipPath id="SVGID_2_"> <use xlink:href="#SVGID_1_" style="overflow:visible;"></use> </clipPath> <g class="st2"> <path class="st3" d="M25.2,34.3c-1.7,0-3.1,1.4-3.1,3.1c0,1.7,1.4,3.1,3.1,3.1c1.7,0,3.1-1.4,3.1-3.1l0,0 C28.3,35.7,26.9,34.3,25.2,34.3z M25.2,39c-0.9,0-1.6-0.7-1.6-1.5s0.7-1.5,1.5-1.5s1.6,0.7,1.6,1.5l0,0C26.8,38.3,26.1,39,25.2,39 C25.2,39,25.2,39,25.2,39L25.2,39z"></path> <path class="st4" d="M34.9,30.5c-0.2-0.1-0.5-0.1-0.8,0c-0.8,0.5-1.7,0.9-2.7,1.2v-7.5c0.4,0,0.8-0.3,0.8-0.8c0,0,0,0,0,0 L32.1,1.6l-1.5,0.2v20.9H19V6.5l-1.4,0.2l-0.1,16.8c0,0.4,0.3,0.8,0.8,0.8c0,0,0,0,0,0v2.1l-5.3,9.1c-0.2,0.3-0.1,0.8,0.2,1 c0.6,0.4,1.3,0.6,2,0.7v6.5c0,0.3,0.2,0.6,0.4,0.7c0.2,0.1,0.5,0.1,0.8,0c0.6-0.4,1.3-0.8,2-1c0.2,1.9,1.9,3.4,3.8,3.4h5.4 c2.1,0,3.9-1.7,3.9-3.9v-0.2c1.3-0.3,2.5-0.8,3.5-1.5c0.2-0.1,0.3-0.4,0.3-0.6v-9.3C35.3,30.9,35.2,30.7,34.9,30.5L34.9,30.5z M19.8,24.2h10.1v1.5H19.8V24.2z M14.7,35.5l4.8-8.2h10.4V32h-5.2c0.7-0.5,1.4-1.1,1.9-1.9l-1.2-0.9C24,31,22,32,19.8,32 c-0.2,0-0.5,0.1-0.6,0.3l-2.1,2.5C16.5,35.5,15.6,35.8,14.7,35.5L14.7,35.5z M27.5,45.1h-5.4c-1.2,0-2.3-1-2.3-2.2 c0.4-0.1,0.8-0.1,1.2-0.1h8.8C29.8,44.1,28.8,45.1,27.5,45.1L27.5,45.1z M33.7,40.1c-1.3,0.8-2.8,1.2-4.4,1.2H21 c-1.5,0-3,0.3-4.3,1v-5.4c0.6-0.2,1.2-0.6,1.6-1.1l1.9-2.2h9.2c1.5,0,3-0.3,4.4-1L33.7,40.1z"></path> </g> </g> <rect x="14.4" y="15.7" class="st1" width="1.6" height="8.5"></rect> <rect x="14.4" y="12.6" class="st1" width="1.6" height="1.6"></rect> <path class="st1" d="M15.4,49.2l2.3-2.3l1.1,1.1l-2.3,2.3L15.4,49.2z"></path> <rect x="23.7" y="49.8" class="st1" width="1.5" height="3.1"></rect> <g> <defs> <rect id="SVGID_3_" x="12.8" y="12.6" width="46.5" height="46.5"></rect> </defs> <clipPath id="SVGID_4_"> <use xlink:href="#SVGID_3_" style="overflow:visible;"></use> </clipPath> <g class="st5"> <path class="st1" d="M19.1,51.8l1.5-3.1l1.4,0.7l-1.5,3.1L19.1,51.8z"></path> <path class="st4" d="M59.2,36.2c0.2-0.3,0.1-0.8-0.2-1c-0.6-0.4-1.3-0.6-2-0.7v-6.5c0-0.4-0.3-0.8-0.8-0.8c-0.2,0-0.3,0-0.4,0.1 c-0.6,0.4-1.3,0.7-2,1C53.5,26.5,51.9,25,50,25h-5.4c-2.1,0-3.9,1.7-3.9,3.9v0.2c-1.3,0.3-2.5,0.8-3.5,1.5 c-0.2,0.1-0.3,0.4-0.3,0.6v9.3c0,0.3,0.2,0.5,0.4,0.7c0.2,0.1,0.5,0.1,0.8,0c0.8-0.5,1.7-0.9,2.7-1.2v7.5c-0.4,0-0.8,0.3-0.8,0.8 c0,0,0,0,0,0v22.4l1.6-0.4V49h11.6v17.1l1.4-0.8l0.2-17c0-0.4-0.3-0.8-0.8-0.8c0,0,0,0,0,0v-2.1L59.2,36.2z M44.6,26.6H50 c1.2,0,2.3,1,2.3,2.2c-0.4,0.1-0.8,0.1-1.2,0.1h-8.8C42.2,27.6,43.3,26.6,44.6,26.6z M38.4,39.2v-7.5c1.3-0.8,2.8-1.2,4.3-1.2h8.4 c1.5,0,3-0.3,4.3-1v5.4c-0.6,0.3-1.2,0.7-1.6,1.2L52,38.2h-9.3C41.2,38.2,39.7,38.5,38.4,39.2L38.4,39.2z M52.3,47.5H42.2v-1.6 h10.1L52.3,47.5z M52.6,44.4H42.2v-4.7h5.2c-0.7,0.5-1.4,1.1-1.9,1.9l1.2,0.9c1.3-1.8,3.4-2.8,5.6-2.8c0.2,0,0.5-0.1,0.6-0.3 l2.1-2.5c0.6-0.7,1.5-1,2.4-0.8L52.6,44.4z"></path> </g> </g> <path class="st3" d="M46.9,31.2c-1.7,0-3.1,1.4-3.1,3.1c0,1.7,1.4,3.1,3.1,3.1c1.7,0,3.1-1.4,3.1-3.1C50,32.6,48.6,31.2,46.9,31.2 C46.9,31.2,46.9,31.2,46.9,31.2L46.9,31.2z M46.9,35.9c-0.9,0-1.5-0.7-1.5-1.5s0.7-1.5,1.5-1.5s1.5,0.7,1.5,1.5l0,0 C48.4,35.2,47.7,35.9,46.9,35.9z"></path> <path class="st1" d="M53.3,23.7l2.3-2.3l1.1,1.1l-2.3,2.3L53.3,23.7z"></path> <rect x="46.9" y="18.8" class="st1" width="1.5" height="3.1"></rect> <path class="st1" d="M50.1,22.3l1.5-3.1l1.4,0.7L51.5,23L50.1,22.3z"></path> <rect x="43" y="50.6" class="st1" width="1.5" height="1.5"></rect> <rect x="27.5" y="19.6" class="st1" width="1.5" height="1.5"></rect> <polyline class="st3" points="17.5,12.6 17.5,7.1 19.2,6 19,12.6 "></polyline> <polyline class="st3" points="30.6,12.6 30.6,1.8 32.5,1.5 32.2,12.6 "></polyline> <polyline class="st3" points="39.9,59.1 39.9,70.1 41.5,69.8 41.5,59.1 "></polyline> <polyline class="st3" points="53.1,59.1 53.1,66.1 54.7,65.1 54.5,59.1 "></polyline> </svg> 