<?xml version="1.0" encoding="UTF-8"?> <!-- Generator: Adobe Illustrator 21.0.0, SVG Export Plug-In . SVG Version: 6.00 Build 0) --> <svg xmlns="http://www.w3.org/2000/svg" xmlns:xlink="http://www.w3.org/1999/xlink" id="Layer_1" x="0px" y="0px" viewBox="0 0 72 72" style="enable-background:new 0 0 72 72;" xml:space="preserve"> <style type="text/css"> .st0{fill:#FFFFFF;stroke:#164455;stroke-width:1.5;stroke-miterlimit:10;} .st1{fill:#164455;} .st2{fill:#F36F2B;} </style> <title>-</title> <circle class="st0" cx="36" cy="35.9" r="34.6"></circle> <path class="st1" d="M31.2,27c0,2.4-1.9,4.4-4.3,4.4c0,0,0,0,0,0v1.2c3.1,0,5.6-2.5,5.6-5.6H31.2z"></path> <path class="st1" d="M21.3,27h1.2c0-2.4,1.9-4.4,4.4-4.4l0,0v-1.2C23.8,21.4,21.3,23.9,21.3,27z"></path> <path class="st2" d="M50.6,21.4c-1-0.2-1.8-1-2-2c0-0.3-0.3-0.6-0.6-0.6c0,0,0,0,0,0c-0.3,0-0.6,0.3-0.6,0.6c-0.2,1-1,1.8-2,2 c-0.3,0-0.6,0.3-0.6,0.6c0,0.3,0.3,0.6,0.6,0.6c0,0,0,0,0,0c1,0.2,1.8,1,2,2c0,0.3,0.3,0.6,0.6,0.6s0.6-0.3,0.6-0.6c0.2-1,1-1.8,2-2 c0.3,0,0.6-0.3,0.6-0.6S50.9,21.4,50.6,21.4z M48,22.9c-0.2-0.3-0.5-0.7-0.9-0.9c0.3-0.2,0.7-0.5,0.9-0.9c0.2,0.3,0.5,0.7,0.9,0.9 C48.5,22.3,48.2,22.6,48,22.9z"></path> <path class="st2" d="M36.8,18.9v-1.9h-1.2v1.9h-1.9v1.2h1.9v1.9h1.2v-1.9h1.9v-1.2H36.8z"></path> <path class="st1" d="M28,26.9l-2-0.3c-0.2,0-0.4-0.2-0.4-0.4c0,0,0,0,0,0c0-0.2,0.2-0.4,0.4-0.4c0,0,0,0,0,0h1.7 c0.2,0,0.4,0.2,0.4,0.4c0,0,0,0,0,0v0.2h1.2v-0.2c0-0.9-0.7-1.6-1.6-1.6h-0.2v-0.6h-1.3v0.6H26c-0.9,0-1.6,0.7-1.6,1.6c0,0,0,0,0,0 c0,0.8,0.6,1.5,1.4,1.6l2,0.3c0.2,0,0.4,0.1,0.4,0.4c0,0.2-0.1,0.4-0.4,0.4c0,0-0.1,0-0.1,0H26c-0.2,0-0.4-0.2-0.4-0.4c0,0,0,0,0,0 v-0.2h-1.3v0.2c0,0.9,0.7,1.6,1.6,1.6h0.2v0.6h1.2v-0.6h0.2c0.9,0,1.6-0.7,1.7-1.6C29.4,27.7,28.8,27,28,26.9z"></path> <path class="st1" d="M34.9,41.9h-1.2v-2.5h0.6c0.3,0,0.6-0.3,0.6-0.6v-3.7c0-0.3-0.3-0.6-0.6-0.6H30c4.1-1.7,6.1-6.4,4.3-10.6 s-6.4-6.1-10.6-4.3s-6.1,6.4-4.3,10.6c0.8,2,2.4,3.5,4.3,4.3h-4.4c-0.3,0-0.6,0.3-0.6,0.6v3.1h-0.6c-0.3,0-0.6,0.3-0.6,0.6v3.7 c0,0.3,0.3,0.6,0.6,0.6h1.2v2.5h-0.6c-0.3,0-0.6,0.3-0.6,0.6v3.1c-0.3,0-0.6,0.3-0.6,0.6v3.7c0,0.3,0.3,0.6,0.6,0.6h14.9 c0.3,0,0.6-0.3,0.6-0.6v-3.1c0.3,0,0.6-0.3,0.6-0.6v-3.1h0.6c0.3,0,0.6-0.3,0.6-0.6v-3.7C35.5,42.2,35.3,41.9,34.9,41.9z M20,27 c0-3.8,3.1-6.8,6.8-6.8s6.8,3.1,6.8,6.8s-3.1,6.8-6.8,6.8l0,0C23.1,33.8,20,30.8,20,27z M20,35.7h13.7v2.5h-1.2V37h-1.2v1.2H30V37 h-1.3v1.2h-1.2V37h-1.2v1.2H25V37h-1.3v1.2h-1.2V37h-1.2v1.2H20V35.7z M18.8,41.9v-2.5h13.7v2.5h-1.2v-1.2H30v1.2h-1.3v-1.2h-1.2 v1.2h-1.2v-1.2H25v1.2h-1.3v-1.2h-1.2v1.2h-1.2v-1.2H20v1.2L18.8,41.9z M32.4,53.1h-1.2v-1.2H30v1.2h-1.3v-1.2h-1.2v1.2h-1.2v-1.2 H25v1.2h-1.3v-1.2h-1.2v1.2h-1.2v-1.2H20v1.2h-1.2v-2.5h13.7V53.1z M33.1,49.4h-1.2v-1.2h-1.2v1.2h-1.2v-1.2h-1.2v1.2h-1.2v-1.2 h-1.2v1.2h-1.2v-1.2h-1.2v1.2h-1.2v-1.2h-1.2v1.2h-1.2v-2.5h13.7V49.4z M34.3,45.7h-1.2v-1.2h-1.2v1.2h-1.2v-1.2h-1.2v1.2h-1.2v-1.2 h-1.2v1.2h-1.2v-1.2h-1.2v1.2h-1.2v-1.2h-1.2v1.2h-1.2v-2.5h13.7V45.7z"></path> <path class="st1" d="M54.2,32c0.3,0,0.6-0.3,0.6-0.6v-3.7c0-0.3-0.3-0.6-0.6-0.6c0,0,0,0,0,0H39.3c-0.3,0-0.6,0.3-0.6,0.6v3.1h-1.9 c-0.3,0-0.6,0.3-0.6,0.6v3.7c0,0.3,0.3,0.6,0.6,0.6h0.6v6.8c0,0.3,0.3,0.6,0.6,0.6h0.6v2.5h-1.2c-0.3,0-0.6,0.3-0.6,0.6v7.5 c0,0.3,0.3,0.6,0.6,0.6h14.9c0.3,0,0.6-0.3,0.6-0.6v-6.8h1.2c0.3,0,0.6-0.3,0.6-0.6v-3.7c0-0.3-0.3-0.6-0.6-0.6h-0.6v-6.8 c0-0.3-0.3-0.6-0.6-0.6h-0.6V32H54.2z M37.4,34.5V32h13.7v2.5h-1.2v-1.2h-1.2v1.2h-1.2v-1.2h-1.2v1.2h-1.2v-1.2h-1.2v1.2h-1.2v-1.2 h-1.2v1.2h-1.2v-1.2h-1.2v1.2L37.4,34.5z M49.8,40.7v1.2h-1.2v-1.2h-1.2v1.2h-1.2v-1.2h-1.2v1.2h-1.2v-1.2h-1.2v1.2h-1.2v-1.2h-1.2 v1.2h-1.2v-2.5h13.7v2.5h-1.2v-1.2H49.8z M51.1,38.2V37h-1.2v1.2h-1.2V37h-1.2v1.2h-1.2V37h-1.2v1.2h-1.2V37h-1.2v1.2h-1.2V37h-1.2 v1.2h-1.2v-2.5h13.7v2.5L51.1,38.2z M51.7,53.1h-1.2v-1.2h-1.2v1.2H48v-1.2h-1.3v1.2h-1.2v-1.2h-1.2v1.2H43v-1.2h-1.2v1.2h-1.2v-1.2 h-1.2v1.2H38v-2.5h13.7V53.1z M51.7,49.4h-1.2v-1.2h-1.2v1.2H48v-1.2h-1.3v1.2h-1.2v-1.2h-1.2v1.2H43v-1.2h-1.2v1.2h-1.2v-1.2h-1.2 v1.2H38v-2.5h13.7V49.4z M53.6,43.2v2.5h-1.2v-1.2h-1.2v1.2h-1.2v-1.2h-1.2v1.2h-1.2v-1.2h-1.2v1.2h-1.2v-1.2h-1.2v1.2h-1.2v-1.2 h-1.2v1.2h-1.2v-2.5L53.6,43.2z M51.1,29.5v1.2h-1.2v-1.2h-1.2v1.2h-1.2v-1.2h-1.2v1.2h-1.2v-1.2h-1.2v1.2h-1.2v-1.2h-1.2v1.2h-1.2 v-2.5h13.7v2.5h-1.2v-1.2H51.1z"></path> </svg> 