<?xml version="1.0" encoding="UTF-8"?> <!-- Generator: Adobe Illustrator 25.2.0, SVG Export Plug-In . SVG Version: 6.00 Build 0) --> <svg xmlns="http://www.w3.org/2000/svg" xmlns:xlink="http://www.w3.org/1999/xlink" version="1.1" id="Layer_1" x="0px" y="0px" viewBox="0 0 72 72" style="enable-background:new 0 0 72 72;" xml:space="preserve"> <style type="text/css"> .st0{fill:#FFFFFF;stroke:#164455;stroke-width:1.5;stroke-miterlimit:10;} .st1{fill:#0F4455;} .st2{fill:#F37028;} .st3{fill:none;stroke:#0F4455;stroke-miterlimit:10;} </style> <g> <circle class="st0" cx="36" cy="36" r="34.6"></circle> <g id="Final---Content-Updates"> <g id="ISO-Version-Mock-Copy" transform="translate(-391.000000, -3451.000000)"> <g id="Group-4-Copy-5" transform="translate(280.000000, 3451.000000)"> <g id="verification-illustration" transform="translate(111.000000, 0.000000)"> <g id="s" transform="translate(22.736842, 22.736842)"> <path id="Path" class="st1" d="M-4,21.6l0.8-0.9c-0.4-0.3-0.6-0.8-0.6-1.4V-1.9c0-1,0.8-1.8,1.8-1.8h30.4c1,0,1.8,0.8,1.8,1.8 v21.3c0,1-0.8,1.8-1.8,1.8H18.1v1.2h10.3c1.7,0,3-1.4,3-3V-1.9c0-1.7-1.4-3-3-3H-2c-1.7,0-3,1.4-3,3v21.3 C-5,20.2-4.6,21-4,21.6z"></path> <polygon id="Path_1_" class="st1" points="-2,-2.5 -0.7,-2.5 -0.7,-1.3 -2,-1.3 "></polygon> <polygon id="Path_2_" class="st1" points="0.5,-2.5 1.7,-2.5 1.7,-1.3 0.5,-1.3 "></polygon> <polygon id="Path_3_" class="st1" points="2.9,-2.5 4.1,-2.5 4.1,-1.3 2.9,-1.3 "></polygon> <polygon id="Path_4_" class="st1" points="-2,-0.1 28.4,-0.1 28.4,1.1 -2,1.1 "></polygon> <path id="Shape" class="st2" d="M24.2,3.5c-2.3,0-4.3,1.9-4.3,4.3s1.9,4.3,4.3,4.3c2.3,0,4.3-1.9,4.3-4.3 C28.4,5.4,26.5,3.5,24.2,3.5z M24.2,10.8c-1.7,0-3-1.4-3-3s1.4-3,3-3c1.7,0,3,1.4,3,3C27.2,9.5,25.8,10.8,24.2,10.8z"></path> <path id="Path_5_" class="st2" d="M25.6,6.1l-2,2l-0.8-0.8l-0.9,0.9l1.2,1.2c0.2,0.2,0.6,0.2,0.9,0L26.4,7L25.6,6.1z"></path> <polygon id="Path_6_" class="st1" points="21.1,13.3 27.2,13.3 27.2,14.5 21.1,14.5 "></polygon> <polygon id="Path_7_" class="st1" points="21.1,15.7 27.2,15.7 27.2,16.9 21.1,16.9 "></polygon> <path id="Shape_1_" class="st2" d="M13.2,3.5C10.9,3.5,9,5.4,9,7.8s1.9,4.3,4.3,4.3s4.3-1.9,4.3-4.3 C17.5,5.4,15.6,3.5,13.2,3.5z M13.2,10.8c-1.7,0-3-1.4-3-3s1.4-3,3-3c1.7,0,3,1.4,3,3C16.3,9.5,14.9,10.8,13.2,10.8z"></path> <path id="Path_8_" class="st2" d="M14.6,6.1l-2,2l-0.8-0.8L11,8.2l1.2,1.2c0.2,0.2,0.6,0.2,0.9,0L15.5,7L14.6,6.1z"></path> <polygon id="Path_9_" class="st1" points="10.2,13.3 16.3,13.3 16.3,14.5 10.2,14.5 "></polygon> <polygon id="Path_10_" class="st1" points="10.2,15.7 16.3,15.7 16.3,16.9 10.2,16.9 "></polygon> <path id="Path_11_" class="st2" d="M2.3,4.8c1,0,2,0.5,2.5,1.4l1-0.7C4.5,3.5,1.9,3-0.1,4.2C-1.2,5-2,6.4-2,7.8 c0,0.2,0,0.5,0.1,0.7l1.2-0.2c0-0.2,0-0.3,0-0.5C-0.7,6.1,0.6,4.8,2.3,4.8L2.3,4.8z"></path> <path id="Shape_2_" class="st1" d="M-4.4,31.5h17c0.1,0,0.2,0,0.3-0.1c1.9-0.3,3.6-1.4,4.4-3h3.3c0.2,0,0.3-0.1,0.4-0.2 l0.8-0.8l0.8,0.8c0.1,0.1,0.3,0.2,0.4,0.2h1.2c0.2,0,0.3-0.1,0.4-0.2l0.8-0.8l0.8,0.8c0.1,0.1,0.3,0.2,0.4,0.2h1.2 c0.2,0,0.4-0.1,0.5-0.3l1.2-1.8c0.1-0.2,0.1-0.5,0-0.7l-1.2-1.8c-0.1-0.2-0.3-0.3-0.5-0.3H17.3c-0.9-1.8-3.1-3-5.2-3 c-1.1,0-2.1,0.3-3,0.9l-0.4-0.2c-0.1,0-0.1,0-0.2-0.1c0,0,0,0,0,0c-1.1-0.6-1.5-1.9-1-3c0.1-0.2,0.2-0.3,0.3-0.5 c0.8-0.9,1.3-2,1.3-3.3v-2.3c0-1.9-1.1-3.7-2.8-4.6C5.6,7.4,4.9,7.2,4.3,7.2C3.6,7.2,3,7.3,2.4,7.5C1.9,7.7,1.5,7.9,1,8.3 c-1.1,0.9-1.8,2.3-1.8,3.8v2.4c0,1.2,0.4,2.4,1.3,3.3c0.7,0.8,0.8,1.9,0.2,2.8c0,0,0,0,0,0c-0.2,0.3-0.5,0.6-0.8,0.7 c0,0,0,0,0,0c-0.1,0-0.1,0.1-0.2,0.1l0,0l-2.8,1.1C-4.2,22.9-5,24-5,25.2v5.6C-5,31.2-4.7,31.5-4.4,31.5L-4.4,31.5z M12,21.8 c1.8,0,3.7,1.1,4.3,2.7c0.1,0.2,0.3,0.4,0.6,0.4h10.6l0.8,1.2l-0.8,1.2h-0.6l-1-1c-0.2-0.2-0.6-0.2-0.9,0l-1,1h-0.7l-1-1 c-0.2-0.2-0.6-0.2-0.9,0l-1,1h-3.4c-0.2,0-0.5,0.2-0.6,0.4c-0.6,1.5-2.5,2.7-4.3,2.7c-2.3,0-4.3-1.9-4.3-4.3 C7.8,23.7,9.7,21.8,12,21.8L12,21.8z M-3.8,25.2c0-0.7,0.5-1.4,1.1-1.7l2.7-1.1c0.1,0,0.2-0.1,0.3-0.1c0.5-0.3,1-0.7,1.3-1.1 c0.9-1.3,0.8-3.1-0.3-4.2C1.2,16.7,1,16.4,0.8,16c0,0,0,0,0,0c-0.2-0.5-0.4-1-0.4-1.6V12C0.5,11,1,9.9,1.8,9.2c0,0,0,0,0,0 c0.3-0.3,0.7-0.5,1-0.6c0.4-0.2,0.9-0.2,1.4-0.2c0.5,0,1,0.1,1.4,0.4c1.3,0.6,2.1,2,2.1,3.5v2.3c0,0.9-0.3,1.8-0.9,2.4 c-1.3,1.4-1.2,3.6,0.3,4.9c0.2,0.2,0.5,0.4,0.7,0.5c0,0,0.1,0,0.1,0.1c-2,2.2-1.8,5.7,0.4,7.7c0.1,0.1,0.2,0.1,0.2,0.2H-3.8 V25.2z"></path> <path id="Shape_3_" class="st2" d="M10.8,27.8c1,0,1.8-0.8,1.8-1.8s-0.8-1.8-1.8-1.8S9,25,9,26C9,27,9.8,27.8,10.8,27.8z M10.8,25.4c0.3,0,0.6,0.3,0.6,0.6s-0.3,0.6-0.6,0.6c-0.3,0-0.6-0.3-0.6-0.6C10.2,25.7,10.5,25.4,10.8,25.4z"></path> </g> </g> </g> </g> </g> </g> <circle class="st3" cx="-99.8" cy="0.5" r="48"></circle> </svg> 