<?xml version="1.0" encoding="UTF-8"?> <!-- Generator: Adobe Illustrator 21.0.0, SVG Export Plug-In . SVG Version: 6.00 Build 0) --> <svg xmlns="http://www.w3.org/2000/svg" xmlns:xlink="http://www.w3.org/1999/xlink" id="Layer_1" x="0px" y="0px" viewBox="0 0 72 72" style="enable-background:new 0 0 72 72;" xml:space="preserve"> <style type="text/css"> .st0{fill:#FFFFFF;stroke:#164455;stroke-width:1.5;stroke-miterlimit:10;} .st1{fill:#164455;} .st2{fill:#F36F2B;} </style> <title>-</title> <circle class="st0" cx="36.2" cy="36.5" r="34.6"></circle> <path class="st1" d="M49.4,29.1H28.2c-0.4,0-0.7,0.3-0.7,0.7v4.7h-4.6c-0.4,0-0.7,0.3-0.7,0.6c0,0,0,0,0,0v10.6 c0,0.4,0.3,0.7,0.7,0.7c0,0,0,0,0,0h15.9c0.4,0,0.7-0.3,0.7-0.6c0,0,0,0,0,0V41h10c0.4,0,0.7-0.3,0.7-0.7c0,0,0,0,0,0V29.8 C50.1,29.4,49.8,29.1,49.4,29.1C49.5,29.1,49.5,29.1,49.4,29.1L49.4,29.1z M27.5,45h-4v-4h4V45z M27.5,39.7h-4v-4h4V39.7z M32.8,45 h-4v-4h4V45z M32.8,39.7h-4v-4h4V39.7z M32.8,34.4h-4v-4h4V34.4z M38.1,45h-4v-4h4V45z M38.1,39.7h-4v-4h4V39.7z M38.1,34.4h-4v-4h4 V34.4z M43.5,39.7h-4v-4h4V39.7z M43.5,34.4h-4v-4h4V34.4z M48.8,39.7h-4v-4h4V39.7z M48.8,34.4h-4v-4h4V34.4z"></path> <path class="st1" d="M52.1,17.8h-5.3v-1.3c0-0.4-0.4-0.6-0.7-0.6c-0.3,0-0.5,0.3-0.6,0.6v1.3h-5.3v-1.3c0-0.4-0.4-0.6-0.7-0.6 c-0.3,0-0.5,0.3-0.6,0.6v1.3h-5.3v-1.3c0-0.4-0.4-0.6-0.7-0.6c-0.3,0-0.5,0.3-0.6,0.6v1.3h-5.3v-1.3c0-0.4-0.3-0.7-0.7-0.7 c-0.4,0-0.7,0.3-0.7,0.7v1.3h-5.3c-0.4,0-0.7,0.3-0.7,0.7V55c0,0.4,0.3,0.7,0.6,0.7c0,0,0,0,0,0h31.9c0.4,0,0.7-0.3,0.7-0.7V18.5 C52.7,18.1,52.5,17.8,52.1,17.8z M51.4,54.3H20.9V53h30.5L51.4,54.3z M51.4,51.7H20.9v-1.3h25.9c0.2,0,0.3-0.1,0.5-0.2l4.2-4.2 L51.4,51.7z M47.4,48.1V45h3L47.4,48.1z M51.4,43.7h-4.7c-0.4,0-0.7,0.3-0.7,0.7V49H20.9V26.4h30.5L51.4,43.7z M51.4,25.1H20.9v-6 h4.6v1.3c0,0.4,0.3,0.7,0.7,0.7s0.7-0.3,0.7-0.7c0,0,0,0,0,0v-1.3h5.3v1.3c0,0.4,0.4,0.6,0.7,0.6c0.3,0,0.5-0.3,0.6-0.6v-1.3h5.3 v1.3c0,0.4,0.4,0.6,0.7,0.6c0.3,0,0.5-0.3,0.6-0.6v-1.3h5.3v1.3c0,0.4,0.4,0.6,0.7,0.6c0.3,0,0.5-0.3,0.6-0.6v-1.3h4.7L51.4,25.1z"></path> <rect x="40.8" y="42.4" class="st2" width="2" height="2"></rect> <rect x="24.2" y="31.1" class="st2" width="2" height="2"></rect> </svg> 