<?xml version="1.0" encoding="UTF-8"?> <!-- Generator: Adobe Illustrator 21.0.0, SVG Export Plug-In . SVG Version: 6.00 Build 0) --> <svg xmlns="http://www.w3.org/2000/svg" xmlns:xlink="http://www.w3.org/1999/xlink" id="Layer_1" x="0px" y="0px" viewBox="0 0 72 72" style="enable-background:new 0 0 72 72;" xml:space="preserve"> <style type="text/css"> .st0{fill:#FFFFFF;stroke:#164455;stroke-width:1.5;stroke-miterlimit:10;} .st1{fill:#164455;} .st2{fill:#F36F2B;} </style> <title>-</title> <circle class="st0" cx="36.3" cy="36.3" r="34.6"></circle> <path class="st1" d="M53.8,25.5c-0.1-0.2-0.3-0.4-0.5-0.4h-5.4v-0.6c0-0.3-0.2-0.6-0.6-0.6c0,0,0,0,0,0h-4.2v-1.2 c0-2.6-2.1-4.8-4.8-4.8l0,0h-4.8c-2.6,0-4.8,2.1-4.8,4.7c0,0,0,0,0,0V24h-4.2c-0.3,0-0.6,0.3-0.6,0.6c0,0,0,0,0,0v0.6h-5.4 c-0.3,0-0.5,0.2-0.6,0.5v25.1c0,1.7,1.3,3,3,3h29.8c1.7,0,3-1.3,3-3L53.8,25.5L53.8,25.5z M43.2,25.2h3.6v6h-3.6V25.2z M30,22.8 c0-2,1.6-3.6,3.6-3.6l0,0h4.8c2,0,3.6,1.5,3.7,3.5c0,0,0,0.1,0,0.1v2.4h-1.2v-2.4c0-1.3-1.1-2.4-2.4-2.4c0,0,0,0,0,0h-4.8 c-1.3,0-2.4,1.1-2.4,2.4v2.4H30V22.8z M39.5,22.8v2.4h-7.1v-2.4c0-0.7,0.5-1.2,1.2-1.2c0,0,0,0,0,0h4.8C39,21.6,39.6,22.1,39.5,22.8 C39.6,22.8,39.6,22.8,39.5,22.8L39.5,22.8z M25.3,25.1h3.6v6h-3.6V25.1z M21.1,52.5c-1,0-1.8-0.8-1.8-1.8l0,0V40.6 c0.5,0.4,1.1,0.6,1.8,0.6h3v2.8c-0.4,0.3-0.6,0.8-0.6,1.3v2.4c0,0.3,0.3,0.6,0.6,0.6v2.4c0,0.6,0.2,1.3,0.6,1.8H21.1z M28.9,50.8 c0.1,1-0.7,1.8-1.7,1.9c-1,0.1-1.8-0.7-1.9-1.7c0-0.1,0-0.2,0-0.3v-1.2h3.6V50.8z M28.9,48.4h-3.6v-3.6h1.2v1.8h1.2v-1.8h1.2 L28.9,48.4z M28.9,43.6h-1.2v-1.2h-1.2v1.2h-1.2v-7.1h3.6V43.6z M29.5,52.5c0.4-0.5,0.6-1.1,0.5-1.8v-2.4c0.3,0,0.6-0.3,0.6-0.6 v-2.4c0-0.5-0.2-1-0.6-1.3v-2.9h12v2.8c-0.4,0.3-0.6,0.8-0.6,1.3v2.4c0,0.3,0.3,0.6,0.6,0.6v2.4c0,0.6,0.2,1.3,0.6,1.8L29.5,52.5z M46.7,50.8c0.1,1-0.7,1.8-1.7,1.9c-1,0.1-1.8-0.7-1.9-1.7c0-0.1,0-0.2,0-0.3v-1.2h3.6V50.8z M46.7,48.4h-3.6v-3.6h1.2v1.8h1.2v-1.8 h1.2L46.7,48.4z M46.7,43.6h-1.2v-1.2h-1.2v1.2h-1.2v-7.1h3.6V43.6z M52.7,50.8c0,1-0.8,1.8-1.8,1.8l0,0h-3.6 c0.4-0.5,0.6-1.1,0.6-1.8v-2.4c0.3,0,0.6-0.3,0.6-0.6v-2.4c0-0.5-0.2-1-0.6-1.3v-2.9h3c0.6,0,1.3-0.2,1.8-0.6L52.7,50.8z M52.7,38.2 c0,1-0.8,1.8-1.8,1.8c0,0,0,0,0,0h-3v-3.5h1.2v-1.2h-8.3v1.2H42V40H30v-3.5h1.2v-1.2h-8.3v1.2h1.2V40h-3c-1,0-1.8-0.8-1.8-1.8V26.3 h4.8v4.8h-1.2v1.2h8.3v-1.2H30v-4.8h12v4.8h-1.2v1.2h8.4v-1.2H48v-4.8h4.8V38.2z"></path> <rect x="26.5" y="40" class="st2" width="1.2" height="1.2"></rect> <rect x="26.5" y="37.7" class="st2" width="1.2" height="1.2"></rect> <rect x="44.3" y="40" class="st2" width="1.2" height="1.2"></rect> <rect x="44.3" y="37.7" class="st2" width="1.2" height="1.2"></rect> </svg> 